<svg width="16" height="16" viewBox="0 0 16 16" fill="none" xmlns="http://www.w3.org/2000/svg">
  <svg x="1" y="1" width="14" height="14" viewBox="0 0 14 14" fill="none" xmlns="http://www.w3.org/2000/svg">
    <path d="M14 2.625L11.375 0C10.7948 0.580061 10.0079 0.905923 9.1875 0.905923C8.36706 0.905923 7.58021 0.580061 7 0L5.25 1.75L7.875 4.375L4.375 7.875L1.75 5.25L0 7C0.580061 7.58021 0.905923 8.36706 0.905923 9.1875C0.905923 10.0079 0.580061 10.7948 0 11.375L2.625 14C3.20521 13.4199 3.99206 13.0941 4.8125 13.0941C5.63294 13.0941 6.41979 13.4199 7 14L8.75 12.25L6.125 9.625L9.625 6.125L12.25 8.75L14 7C13.4199 6.41979 13.0941 5.63294 13.0941 4.8125C13.0941 3.99206 13.4199 3.20521 14 2.625Z" fill="currentColor"/>
  </svg>
</svg>