<svg width="16" height="16" viewBox="0 0 16 16" fill="none" xmlns="http://www.w3.org/2000/svg">
  <svg x="1.7" y="1.7" width="12.6" height="12.6" viewBox="0 0 12.6006 12.6006" fill="none" xmlns="http://www.w3.org/2000/svg">
    <path d="M7.2998 2.49121C7.64937 2.58301 7.9797 2.72201 8.28418 2.90039L10.0479 1.1377L10.7549 1.84473L11.4619 2.55273L9.69727 4.31543C9.87538 4.61999 10.0139 4.95022 10.1055 5.2998H12.6006V7.2998H10.1055C10.014 7.64911 9.87518 7.97885 9.69727 8.2832L11.4619 10.0479L10.0479 11.4619L8.28418 9.69824C7.97965 9.8767 7.64944 10.0156 7.2998 10.1074V12.6006H5.2998V10.1094C4.94941 10.0179 4.61869 9.87861 4.31348 9.7002L2.55273 11.4619L1.84473 10.7549L1.1377 10.0479L2.89844 8.28711C2.71947 7.98173 2.58012 7.65053 2.48828 7.2998H0V5.2998H2.48828C2.58019 4.94879 2.71927 4.61711 2.89844 4.31152L1.1377 2.55273L1.84473 1.84473L2.55176 1.1377L4.31348 2.89844C4.61864 2.7201 4.94948 2.58068 5.2998 2.48926V0H7.2998V2.49121Z" fill="currentColor"/>
  </svg>
</svg>