<svg width="48" height="48" viewBox="0 0 48 48" fill="none" xmlns="http://www.w3.org/2000/svg">
<rect width="48" height="48" fill="#C22302"/>
<path d="M38 15.25L32.75 10C31.5896 11.1601 30.0159 11.8118 28.375 11.8118C26.7341 11.8118 25.1604 11.1601 24 10L20.5 13.5L25.75 18.75L18.75 25.75L13.5 20.5L10 24C11.1601 25.1604 11.8118 26.7341 11.8118 28.375C11.8118 30.0159 11.1601 31.5896 10 32.75L15.25 38C16.4104 36.8399 17.9841 36.1882 19.625 36.1882C21.2659 36.1882 22.8396 36.8399 24 38L27.5 34.5L22.25 29.25L29.25 22.25L34.5 27.5L38 24C36.8399 22.8396 36.1882 21.2659 36.1882 19.625C36.1882 17.9841 36.8399 16.4104 38 15.25Z" fill="white"/>
</svg>
